<?xml version="1.0" encoding="UTF-8" standalone="no"?>
<!-- Generator: Adobe Illustrator 23.0.3, SVG Export Plug-In . SVG Version: 6.00 Build 0)  -->

<svg
   xmlns:dc="http://purl.org/dc/elements/1.1/"
   xmlns:cc="http://creativecommons.org/ns#"
   xmlns:rdf="http://www.w3.org/1999/02/22-rdf-syntax-ns#"
   xmlns:svg="http://www.w3.org/2000/svg"
   xmlns="http://www.w3.org/2000/svg"
   xmlns:xlink="http://www.w3.org/1999/xlink"
   xmlns:sodipodi="http://sodipodi.sourceforge.net/DTD/sodipodi-0.dtd"
   xmlns:inkscape="http://www.inkscape.org/namespaces/inkscape"
   version="1.1"
   id="Layer_1"
   x="0px"
   y="0px"
   viewBox="0 0 669.90202 159.4"
   xml:space="preserve"
   sodipodi:docname="do your bit_FINAL LOGOcrop.svg"
   width="669.90204"
   height="159.39999"
   inkscape:version="0.92.2 5c3e80d, 2017-08-06"><metadata
     id="metadata131"><rdf:RDF><cc:Work
         rdf:about=""><dc:format>image/svg+xml</dc:format><dc:type
           rdf:resource="http://purl.org/dc/dcmitype/StillImage" /><dc:title>do your bit_FINAL LOGO</dc:title></cc:Work></rdf:RDF></metadata><defs
     id="defs129" /><sodipodi:namedview
     pagecolor="#ffffff"
     bordercolor="#666666"
     borderopacity="1"
     objecttolerance="10"
     gridtolerance="10"
     guidetolerance="10"
     inkscape:pageopacity="0"
     inkscape:pageshadow="2"
     inkscape:window-width="1119"
     inkscape:window-height="777"
     id="namedview127"
     showgrid="false"
     inkscape:zoom="0.38484379"
     inkscape:cx="607.06882"
     inkscape:cy="-102.84197"
     inkscape:window-x="0"
     inkscape:window-y="0"
     inkscape:window-maximized="0"
     inkscape:current-layer="Layer_1" /><style
     type="text/css"
     id="style2">
	.st0{clip-path:url(#SVGID_2_);}
	.st1{fill:#E1A929;}
	.st2{fill:#289438;}
	.st3{fill:#00A7D7;}
	.st4{fill:#C11728;}
	.st5{fill:#E6331D;}
	.st6{fill:#E2061F;}
	.st7{fill:#FFFFFF;}
</style><title
     id="title4">do your bit_FINAL LOGO</title><g
     id="g34"
     transform="translate(-85.697971,-217.3)"><defs
       id="defs7"><path
         id="SVGID_1_"
         d="m 195.6,316.1 c -9,0 -17.7,-3.7 -24,-10.2 -13.2,-13.6 -13.2,-35.2 0,-48.7 12.7,-13.2 33.8,-13.6 47,-0.9 0.3,0.3 0.6,0.6 0.9,0.9 13.2,13.6 13.2,35.2 0,48.8 -6.3,6.4 -14.9,10.1 -23.9,10.1 z m -0.1,-55.3 c -10.7,0 -19.4,9.3 -19.4,20.7 0,11.4 8.7,20.6 19.4,20.6 11,0 19.5,-9 19.5,-20.6 0,-11.6 -8.8,-20.7 -19.5,-20.7 z m -99.9,45.1 c -6.4,-6.5 -10,-15.3 -9.9,-24.4 0,-9.1 3.5,-17.9 9.9,-24.4 11.7,-11.8 30.3,-13.4 43.8,-3.7 v -36.1 h 13.9 v 56.6 c 0.1,1.5 0.1,3 0.1,4.4 0,22.2 -14,37.8 -33.9,37.8 -9.1,0 -17.7,-3.7 -23.9,-10.2 z m 3.6,-24.3 c -0.1,11.2 8.9,20.4 20.2,20.6 11.3,0 20.2,-9 20.2,-20.6 0,-11.6 -9,-20.7 -20.2,-20.7 -11.2,0 -20.2,9.3 -20.2,20.7 z m 423.4,32.8 h -14.8 v -32.9 c 0,-21.1 9.1,-31.2 29.6,-32.9 l 2.8,-0.2 v 13.8 l -2.3,0.3 c -11.2,1.2 -15.3,6.2 -15.3,18.3 z m -136.4,1.7 c -9,0 -17.7,-3.7 -24,-10.2 -13.2,-13.6 -13.2,-35.2 0,-48.7 12.7,-13.2 33.8,-13.6 47,-0.9 0.3,0.3 0.6,0.6 0.9,0.9 13.2,13.6 13.2,35.2 0,48.8 -6.2,6.4 -14.9,10.1 -23.9,10.1 z m -0.1,-55.3 c -10.7,0 -19.4,9.3 -19.4,20.7 0,11.4 8.7,20.6 19.4,20.6 11,0 19.5,-9 19.5,-20.6 0,-11.6 -8.7,-20.7 -19.5,-20.7 z m 200.8,53.6 c -5.3,0 -9.6,-4.3 -9.6,-9.6 0,-5.3 4.3,-9.6 9.6,-9.6 5.3,0 9.6,4.3 9.6,9.6 0,5.3 -4.3,9.6 -9.6,9.6 z m 0,-48.2 c -5.3,0 -9.6,-4.3 -9.6,-9.6 0,-5.3 4.3,-9.6 9.6,-9.6 5.3,0 9.6,4.3 9.6,9.6 0,5.3 -4.3,9.6 -9.6,9.6 0,0 0,0 0,0 z m 56.6,49.9 c -20,0 -33.9,-15.5 -33.9,-37.8 0,-1.4 0,-2.9 0.1,-4.4 v -56.6 h 13.9 v 36.1 c 13.5,-9.7 32.1,-8.1 43.8,3.7 6.4,6.5 9.9,15.3 9.9,24.4 0.1,9.1 -3.5,17.9 -9.9,24.4 -6.2,6.5 -14.9,10.1 -23.9,10.2 z m 0,-55.2 c -11.1,0 -20.2,9.3 -20.2,20.7 -0.2,11.1 8.6,20.3 19.8,20.6 0.1,0 0.3,0 0.4,0 11.2,-0.1 20.3,-9.3 20.2,-20.6 0,-11.4 -9,-20.7 -20.2,-20.7 z m 59.8,53.5 h -14 v -65.8 h 14 z m -7,-75.3 c -4.9,0 -8.9,-4 -8.9,-8.9 0,-0.1 0,-0.1 0,-0.2 -0.1,-4.8 3.7,-8.8 8.5,-8.9 0.1,0 0.3,0 0.4,0 4.9,-0.1 9,3.8 9,8.7 0,0.1 0,0.1 0,0.2 0,5 -4,9 -9,9.1 z m 59.3,77.3 -3.1,-0.6 c -20.6,-4 -28.3,-13.9 -28.3,-36.4 v -16.5 h -6 v -13.3 h 6 V 235 h 14.1 v 14.6 h 17.3 v 13.3 h -17.2 v 18.6 c 0,12.3 4.6,18.5 15,20 l 2.2,0.3 z M 481.8,281.5 c 0,11.5 -8.6,20.6 -19.5,20.6 -10.7,0 -19.4,-9.2 -19.4,-20.6 v -32.6 h -14.4 v 32.6 c 0,9.1 3.5,17.9 9.9,24.4 12.8,13.2 33.8,13.6 47,0.8 0.3,-0.3 0.6,-0.6 0.8,-0.8 6.4,-6.5 10,-15.3 9.9,-24.4 v -32.6 h -14.4 v 32.6 z M 327.5,252.8 v 32.6 c 0,11.6 -8.6,20.6 -19.5,20.6 -10.7,0 -19.4,-9.2 -19.4,-20.6 v -32.6 h -14.4 v 32.6 c 0,9.1 3.5,17.9 9.9,24.4 6.3,6.5 14.9,10.2 24,10.2 6.8,0 13.4,-2.2 19,-6.1 v 6.6 c 0,10.9 -3.4,16 -12.3,17.8 -3.4,0.6 -6.9,0.6 -10.4,0 -6.9,-1.4 -10.5,-4.8 -11.8,-11.3 h -14.8 c 1.9,15 9.9,22.9 25.3,25.2 2.2,0.3 4.3,0.4 6.5,0.4 v 0 c 2.2,0 4.3,-0.1 6.5,-0.4 17.8,-2.6 25.8,-12.7 25.8,-32.4 v -66.9 h -14.4 z"
         inkscape:connector-curvature="0" /></defs><clipPath
       id="SVGID_2_"><use
         xlink:href="#SVGID_1_"
         style="overflow:visible"
         id="use9"
         x="0"
         y="0"
         width="100%"
         height="100%" /></clipPath><g
       class="st0"
       clip-path="url(#SVGID_2_)"
       id="g32"><circle
         class="st1"
         cx="653.40002"
         cy="190.89999"
         r="114.2"
         id="circle12"
         style="fill:#e1a929" /><circle
         class="st1"
         cx="825.70001"
         cy="337.39999"
         r="152.10001"
         id="circle14"
         style="fill:#e1a929" /><circle
         class="st2"
         cx="84.800003"
         cy="298"
         r="152.10001"
         id="circle16"
         style="fill:#289438" /><circle
         class="st2"
         cx="578.5"
         cy="344.20001"
         r="108.6"
         id="circle18"
         style="fill:#289438" /><circle
         class="st3"
         cx="829.70001"
         cy="211.39999"
         r="152.10001"
         id="circle20"
         style="fill:#00a7d7" /><circle
         class="st3"
         cx="217.39999"
         cy="194.39999"
         r="106.2"
         id="circle22"
         style="fill:#00a7d7" /><ellipse
         transform="matrix(0.7071,-0.7071,0.7071,0.7071,-53.5928,399.399)"
         class="st4"
         cx="455.29999"
         cy="264.39999"
         rx="109.7"
         ry="109.6"
         id="ellipse24"
         style="fill:#c11728" /><circle
         transform="matrix(0.7071,-0.7071,0.7071,0.7071,-167.6429,433.0852)"
         class="st5"
         cx="439"
         cy="418.89999"
         id="ellipse26"
         r="152.10001"
         style="fill:#e6331d" /><circle
         transform="matrix(0.7071,-0.7071,0.7071,0.7071,-70.9955,291.0776)"
         class="st1"
         cx="315.89999"
         cy="231.2"
         id="ellipse28"
         r="85.800003"
         style="fill:#e1a929" /><circle
         class="st6"
         cx="296.70001"
         cy="451"
         r="152.10001"
         id="circle30"
         style="fill:#e2061f" /></g></g><path
     class="st1"
     d="m 283.40203,130.4 h 371.8 c 8,0 14.5,6.5 14.5,14.5 v 0 c 0,8 -6.5,14.5 -14.5,14.5 h -371.8 c -8,0 -14.5,-6.5 -14.5,-14.5 v 0 c -0.1,-8 6.4,-14.5 14.5,-14.5 z"
     id="path36"
     inkscape:connector-curvature="0"
     style="fill:#e1a929" /><g
     id="g124"
     transform="translate(-85.697971,-217.3)"><path
       class="st7"
       d="m 374.1,368 -0.5,-1.5 h -4.5 l -0.5,1.5 h -2.1 l 4.1,-11.9 h 1.4 l 4.1,11.9 z m -2.7,-8.7 -1.6,5.4 h 3.3 z"
       id="path38"
       inkscape:connector-curvature="0"
       style="fill:#ffffff" /><path
       class="st7"
       d="m 391.7,368 v -4.4 c 0,-1.3 -0.4,-2.1 -1.5,-2.1 -0.9,0 -1.7,0.6 -1.7,2.5 v 4 h -1.9 v -4.5 c 0,-1.3 -0.4,-2 -1.4,-2 -0.9,0 -1.7,0.6 -1.7,2.5 v 4 h -1.9 v -8 h 1.9 v 1.1 c 0.3,-0.7 1.2,-1.3 2.2,-1.3 1.4,0 2.2,0.6 2.5,1.4 0.4,-0.8 1.3,-1.4 2.4,-1.4 2.4,0 2.9,1.6 2.9,3.1 v 5 h -1.8 z"
       id="path40"
       inkscape:connector-curvature="0"
       style="fill:#ffffff" /><path
       class="st7"
       d="m 396.8,355.8 c 0.8,0 1.4,0.6 1.4,1.4 0,0.7 -0.6,1.4 -1.4,1.4 -0.7,0 -1.4,-0.6 -1.4,-1.4 0.1,-0.8 0.7,-1.4 1.4,-1.4 z m -0.9,4.2 h 1.9 v 7.9 h -1.9 z"
       id="path42"
       inkscape:connector-curvature="0"
       style="fill:#ffffff" /><path
       class="st7"
       d="m 405.5,362.9 c -0.1,-0.9 -0.6,-1.4 -1.9,-1.4 -1.4,0 -2.1,1.2 -2.1,2.5 0,1.4 0.6,2.5 2.2,2.5 1.1,0 1.5,-0.5 1.8,-1.3 h 1.9 c -0.3,1.6 -1.5,2.9 -3.8,2.9 -2.6,0 -4,-2 -4,-4.2 0,-2.1 1.4,-4.2 3.9,-4.2 2.6,0 3.6,1.6 3.8,3.1 h -1.8 z"
       id="path44"
       inkscape:connector-curvature="0"
       style="fill:#ffffff" /><path
       class="st7"
       d="m 414.4,361.8 c -0.3,-0.1 -0.4,-0.1 -0.7,-0.1 -1.6,0 -2.4,0.9 -2.4,2.9 v 3.4 h -1.9 v -8 h 1.9 v 1.3 c 0.4,-0.7 1.4,-1.4 2.4,-1.4 0.3,0 0.5,0 0.7,0.1 z"
       id="path46"
       inkscape:connector-curvature="0"
       style="fill:#ffffff" /><path
       class="st7"
       d="m 414.8,364 c 0,-2.2 1.6,-4.2 4.2,-4.2 2.6,0 4.2,1.9 4.2,4.2 0,2.3 -1.6,4.2 -4.2,4.2 -2.6,0 -4.2,-1.9 -4.2,-4.2 z m 6.5,0 c 0,-1.4 -0.9,-2.5 -2.3,-2.5 -1.4,0 -2.3,1.2 -2.3,2.5 0,1.4 0.9,2.5 2.3,2.5 1.4,0 2.3,-1.1 2.3,-2.5 z"
       id="path48"
       inkscape:connector-curvature="0"
       style="fill:#ffffff" /><path
       class="st7"
       d="m 426.2,359.7 c 0.8,0 1.4,0.6 1.4,1.4 0,0.7 -0.6,1.4 -1.4,1.4 -0.7,0 -1.4,-0.6 -1.4,-1.4 0,-0.7 0.6,-1.4 1.4,-1.4 z m 0,5.6 c 0.8,0 1.4,0.6 1.4,1.4 0,0.7 -0.6,1.4 -1.4,1.4 -0.7,0 -1.4,-0.6 -1.4,-1.4 0,-0.8 0.6,-1.4 1.4,-1.4 z"
       id="path50"
       inkscape:connector-curvature="0"
       style="fill:#ffffff" /><path
       class="st7"
       d="m 431.7,368 h -1.9 v -11.9 h 1.9 v 5 c 0.5,-0.8 1.5,-1.3 2.4,-1.3 2.4,0 4.1,1.9 4.1,4.2 0,2.3 -1.6,4.2 -4.1,4.2 -0.9,0 -2,-0.5 -2.4,-1.3 z m 4.6,-4 c 0,-1.4 -0.9,-2.5 -2.3,-2.5 -1.4,0 -2.3,1.2 -2.3,2.5 0,1.4 0.9,2.5 2.3,2.5 1.4,0 2.3,-1.1 2.3,-2.5 z"
       id="path52"
       inkscape:connector-curvature="0"
       style="fill:#ffffff" /><path
       class="st7"
       d="m 441,355.8 c 0.8,0 1.4,0.6 1.4,1.4 0,0.7 -0.6,1.4 -1.4,1.4 -0.7,0 -1.4,-0.6 -1.4,-1.4 0,-0.8 0.7,-1.4 1.4,-1.4 z m -0.9,4.2 h 1.9 v 7.9 h -1.9 z"
       id="path54"
       inkscape:connector-curvature="0"
       style="fill:#ffffff" /><path
       class="st7"
       d="m 448.8,368 c -0.3,0.1 -0.8,0.1 -1.4,0.1 -0.9,0 -2.6,-0.1 -2.6,-2.8 v -3.7 h -1.3 V 360 h 1.3 v -2.4 h 1.9 v 2.4 h 1.8 v 1.5 h -1.8 v 3.3 c 0,1.4 0.4,1.5 1.2,1.5 0.3,0 0.7,0 0.9,-0.1 z"
       id="path56"
       inkscape:connector-curvature="0"
       style="fill:#ffffff" /><path
       class="st7"
       d="m 460.6,366.9 c -0.5,0.8 -1.5,1.3 -2.4,1.3 -2.4,0 -4.1,-1.9 -4.1,-4.2 0,-2.3 1.6,-4.2 4.1,-4.2 0.9,0 2,0.5 2.4,1.3 v -5 h 1.9 V 368 h -1.9 z m 0,-2.9 c 0,-1.4 -0.9,-2.5 -2.3,-2.5 -1.4,0 -2.3,1.2 -2.3,2.5 0,1.4 0.9,2.5 2.3,2.5 1.3,0 2.3,-1.1 2.3,-2.5 z"
       id="path58"
       inkscape:connector-curvature="0"
       style="fill:#ffffff" /><path
       class="st7"
       d="m 465.8,355.8 c 0.8,0 1.4,0.6 1.4,1.4 0,0.7 -0.6,1.4 -1.4,1.4 -0.7,0 -1.4,-0.6 -1.4,-1.4 0,-0.8 0.7,-1.4 1.4,-1.4 z m -0.9,4.2 h 1.9 v 7.9 h -1.9 z"
       id="path60"
       inkscape:connector-curvature="0"
       style="fill:#ffffff" /><path
       class="st7"
       d="m 477,368.4 c 0,1.3 -0.4,2.3 -1.1,2.9 -0.7,0.6 -1.8,0.9 -3.1,0.9 -1.3,0 -2.3,-0.4 -3,-1 -0.7,-0.6 -1,-1.4 -1.1,-2.3 h 1.9 c 0.1,0.8 0.8,1.6 2.1,1.6 1.5,0 2.4,-0.6 2.4,-2.1 v -1.5 c -0.5,0.8 -1.5,1.3 -2.4,1.3 -2.4,0 -4.1,-1.9 -4.1,-4.2 0,-2.3 1.6,-4.2 4.1,-4.2 0.9,0 2,0.5 2.4,1.3 V 360 h 1.9 z m -6.5,-4.4 c 0,1.4 0.9,2.5 2.3,2.5 1.4,0 2.3,-1.2 2.3,-2.5 0,-1.4 -0.9,-2.5 -2.3,-2.5 -1.4,0 -2.3,1.1 -2.3,2.5 z"
       id="path62"
       inkscape:connector-curvature="0"
       style="fill:#ffffff" /><path
       class="st7"
       d="m 480.3,355.8 c 0.8,0 1.4,0.6 1.4,1.4 0,0.7 -0.6,1.4 -1.4,1.4 -0.7,0 -1.4,-0.6 -1.4,-1.4 0.1,-0.8 0.7,-1.4 1.4,-1.4 z m -0.9,4.2 h 1.9 v 7.9 h -1.9 z"
       id="path64"
       inkscape:connector-curvature="0"
       style="fill:#ffffff" /><path
       class="st7"
       d="m 488.1,368 c -0.3,0.1 -0.8,0.1 -1.4,0.1 -0.9,0 -2.6,-0.1 -2.6,-2.8 v -3.7 h -1.3 V 360 h 1.3 v -2.4 h 1.9 v 2.4 h 1.8 v 1.5 H 486 v 3.3 c 0,1.4 0.4,1.5 1.2,1.5 0.3,0 0.7,0 0.9,-0.1 z"
       id="path66"
       inkscape:connector-curvature="0"
       style="fill:#ffffff" /><path
       class="st7"
       d="m 497.3,360 v 7.9 h -1.9 v -1.1 c -0.5,0.8 -1.5,1.3 -2.4,1.3 -2.4,0 -4.1,-1.9 -4.1,-4.2 0,-2.3 1.6,-4.2 4.1,-4.2 0.9,0 2,0.5 2.4,1.3 v -1 z m -1.8,4 c 0,-1.4 -0.9,-2.5 -2.3,-2.5 -1.4,0 -2.3,1.2 -2.3,2.5 0,1.4 0.9,2.5 2.3,2.5 1.4,0 2.3,-1.1 2.3,-2.5 z"
       id="path68"
       inkscape:connector-curvature="0"
       style="fill:#ffffff" /><path
       class="st7"
       d="m 499.8,356.1 h 1.9 V 368 h -1.9 z"
       id="path70"
       inkscape:connector-curvature="0"
       style="fill:#ffffff" /><path
       class="st7"
       d="m 513.7,362.9 c -0.1,-0.9 -0.6,-1.4 -1.9,-1.4 -1.4,0 -2.1,1.2 -2.1,2.5 0,1.4 0.6,2.5 2.2,2.5 1.1,0 1.5,-0.5 1.8,-1.3 h 1.9 c -0.3,1.6 -1.5,2.9 -3.8,2.9 -2.6,0 -4,-2 -4,-4.2 0,-2.1 1.4,-4.2 3.9,-4.2 2.6,0 3.6,1.6 3.8,3.1 h -1.8 z"
       id="path72"
       inkscape:connector-curvature="0"
       style="fill:#ffffff" /><path
       class="st7"
       d="m 517.5,356.1 h 1.9 v 5.1 c 0.5,-0.8 1.4,-1.3 2.6,-1.3 1.1,0 1.9,0.4 2.4,1.1 0.4,0.6 0.5,1.3 0.5,2.3 V 368 H 523 v -4.1 c 0,-1.4 -0.4,-2.4 -1.7,-2.4 -1.3,0 -1.9,1 -1.9,2.4 v 4.1 h -1.9 z"
       id="path74"
       inkscape:connector-curvature="0"
       style="fill:#ffffff" /><path
       class="st7"
       d="m 534.9,360 v 7.9 H 533 v -1.1 c -0.5,0.8 -1.5,1.3 -2.4,1.3 -2.4,0 -4.1,-1.9 -4.1,-4.2 0,-2.3 1.6,-4.2 4.1,-4.2 0.9,0 2,0.5 2.4,1.3 v -1 z m -1.8,4 c 0,-1.4 -0.9,-2.5 -2.3,-2.5 -1.4,0 -2.3,1.2 -2.3,2.5 0,1.4 0.9,2.5 2.3,2.5 1.3,0 2.3,-1.1 2.3,-2.5 z"
       id="path76"
       inkscape:connector-curvature="0"
       style="fill:#ffffff" /><path
       class="st7"
       d="m 537.4,356.1 h 1.9 V 368 h -1.9 z"
       id="path78"
       inkscape:connector-curvature="0"
       style="fill:#ffffff" /><path
       class="st7"
       d="m 541.7,356.1 h 1.9 V 368 h -1.9 z"
       id="path80"
       inkscape:connector-curvature="0"
       style="fill:#ffffff" /><path
       class="st7"
       d="m 547.3,364.6 c 0.1,1.1 0.6,2.1 2.1,2.1 1.1,0 1.5,-0.5 1.7,-1 h 1.9 c -0.2,1.4 -1.5,2.6 -3.6,2.6 -2.7,0 -4,-1.8 -4,-4.2 0,-2.4 1.4,-4.2 3.9,-4.2 2.1,0 3.7,1.5 3.7,3.6 0,0.3 0,0.6 -0.1,1.2 h -5.6 z m 0,-1.4 h 3.9 c 0,-1.2 -0.8,-2 -1.9,-2 -1.1,0 -2,0.7 -2,2 z"
       id="path82"
       inkscape:connector-curvature="0"
       style="fill:#ffffff" /><path
       class="st7"
       d="m 555.1,360 h 1.9 v 1.1 c 0.5,-0.8 1.4,-1.3 2.6,-1.3 1.1,0 1.9,0.4 2.4,1.1 0.4,0.6 0.5,1.3 0.5,2.3 v 4.7 h -1.9 v -4.1 c 0,-1.4 -0.4,-2.4 -1.7,-2.4 -1.3,0 -1.9,1 -1.9,2.4 v 4.1 h -1.9 z"
       id="path84"
       inkscape:connector-curvature="0"
       style="fill:#ffffff" /><path
       class="st7"
       d="m 572.6,368.4 c 0,1.3 -0.4,2.3 -1.1,2.9 -0.7,0.6 -1.8,0.9 -3.1,0.9 -1.3,0 -2.3,-0.4 -3,-1 -0.7,-0.6 -1,-1.4 -1.1,-2.3 h 1.9 c 0.1,0.8 0.8,1.6 2.1,1.6 1.5,0 2.4,-0.6 2.4,-2.1 v -1.5 c -0.5,0.8 -1.5,1.3 -2.4,1.3 -2.4,0 -4.1,-1.9 -4.1,-4.2 0,-2.3 1.6,-4.2 4.1,-4.2 0.9,0 2,0.5 2.4,1.3 V 360 h 1.9 z M 566,364 c 0,1.4 0.9,2.5 2.3,2.5 1.4,0 2.3,-1.2 2.3,-2.5 0,-1.4 -0.9,-2.5 -2.3,-2.5 -1.4,0 -2.3,1.1 -2.3,2.5 z"
       id="path86"
       inkscape:connector-curvature="0"
       style="fill:#ffffff" /><path
       class="st7"
       d="m 576.2,364.6 c 0.1,1.1 0.6,2.1 2.1,2.1 1.1,0 1.5,-0.5 1.7,-1 h 1.9 c -0.2,1.4 -1.5,2.6 -3.6,2.6 -2.7,0 -4,-1.8 -4,-4.2 0,-2.4 1.4,-4.2 3.9,-4.2 2.1,0 3.7,1.5 3.7,3.6 0,0.3 0,0.6 -0.1,1.2 h -5.6 z m 0,-1.4 h 3.9 c 0,-1.2 -0.8,-2 -1.9,-2 -1.1,0 -2,0.7 -2,2 z"
       id="path88"
       inkscape:connector-curvature="0"
       style="fill:#ffffff" /><path
       class="st7"
       d="m 592.9,357.7 c -0.3,-0.1 -0.5,-0.1 -0.8,-0.1 -0.6,0 -1.3,0 -1.3,1.2 v 1.2 h 2.1 v 1.5 h -2.1 v 6.4 H 589 v -6.4 h -1.6 V 360 h 1.6 v -1 c 0,-3 1.9,-3.1 2.9,-3.1 0.5,0 0.9,0.1 1.1,0.2 v 1.6 z"
       id="path90"
       inkscape:connector-curvature="0"
       style="fill:#ffffff" /><path
       class="st7"
       d="m 593.6,364 c 0,-2.2 1.6,-4.2 4.2,-4.2 2.5,0 4.2,1.9 4.2,4.2 0,2.3 -1.6,4.2 -4.2,4.2 -2.6,0 -4.2,-1.9 -4.2,-4.2 z m 6.5,0 c 0,-1.4 -0.9,-2.5 -2.3,-2.5 -1.4,0 -2.3,1.2 -2.3,2.5 0,1.4 0.9,2.5 2.3,2.5 1.4,0 2.3,-1.1 2.3,-2.5 z"
       id="path92"
       inkscape:connector-curvature="0"
       style="fill:#ffffff" /><path
       class="st7"
       d="m 608.9,361.8 c -0.3,-0.1 -0.4,-0.1 -0.7,-0.1 -1.6,0 -2.4,0.9 -2.4,2.9 v 3.4 h -1.9 v -8 h 1.9 v 1.3 c 0.4,-0.7 1.4,-1.4 2.4,-1.4 0.3,0 0.5,0 0.7,0.1 z"
       id="path94"
       inkscape:connector-curvature="0"
       style="fill:#ffffff" /><path
       class="st7"
       d="m 618.9,368 c -0.3,0.1 -0.8,0.1 -1.4,0.1 -0.9,0 -2.6,-0.1 -2.6,-2.8 v -3.7 h -1.3 V 360 h 1.3 v -2.4 h 1.9 v 2.4 h 1.8 v 1.5 h -1.8 v 3.3 c 0,1.4 0.4,1.5 1.2,1.5 0.3,0 0.7,0 0.9,-0.1 z"
       id="path96"
       inkscape:connector-curvature="0"
       style="fill:#ffffff" /><path
       class="st7"
       d="m 620.5,356.1 h 1.9 v 5.1 c 0.5,-0.8 1.4,-1.3 2.6,-1.3 1.1,0 1.9,0.4 2.4,1.1 0.4,0.6 0.5,1.3 0.5,2.3 V 368 H 626 v -4.1 c 0,-1.4 -0.4,-2.4 -1.7,-2.4 -1.3,0 -1.9,1 -1.9,2.4 v 4.1 h -1.9 z"
       id="path98"
       inkscape:connector-curvature="0"
       style="fill:#ffffff" /><path
       class="st7"
       d="m 631.4,364.6 c 0.1,1.1 0.6,2.1 2.1,2.1 1.1,0 1.5,-0.5 1.7,-1 h 1.9 c -0.2,1.4 -1.5,2.6 -3.6,2.6 -2.7,0 -4,-1.8 -4,-4.2 0,-2.4 1.4,-4.2 3.9,-4.2 2.1,0 3.7,1.5 3.7,3.6 0,0.3 0,0.6 -0.1,1.2 h -5.6 z m 0,-1.4 h 3.9 c 0,-1.2 -0.8,-2 -1.9,-2 -1.1,0 -2,0.7 -2,2 z"
       id="path100"
       inkscape:connector-curvature="0"
       style="fill:#ffffff" /><path
       class="st7"
       d="m 650.4,362 h 5.7 v 1.8 h -1.3 c -0.5,2.7 -2.5,4.5 -5.8,4.5 -3.9,0 -6.1,-3 -6.1,-6.2 0,-3.2 2.4,-6.2 6.1,-6.2 2.8,0 4.9,1.8 5.1,3.9 h -2 c -0.2,-1.2 -1.4,-2.1 -3.1,-2.1 -2.6,0 -4.1,2.2 -4.1,4.5 0,2.3 1.4,4.5 4.4,4.5 2,0 3.2,-1.3 3.5,-2.8 h -2.3 V 362 Z"
       id="path102"
       inkscape:connector-curvature="0"
       style="fill:#ffffff" /><path
       class="st7"
       d="m 657.7,356.1 h 1.9 V 368 h -1.9 z"
       id="path104"
       inkscape:connector-curvature="0"
       style="fill:#ffffff" /><path
       class="st7"
       d="m 661.4,364 c 0,-2.2 1.6,-4.2 4.2,-4.2 2.5,0 4.2,1.9 4.2,4.2 0,2.3 -1.6,4.2 -4.2,4.2 -2.5,0 -4.2,-1.9 -4.2,-4.2 z m 6.5,0 c 0,-1.4 -0.9,-2.5 -2.3,-2.5 -1.4,0 -2.3,1.2 -2.3,2.5 0,1.4 0.9,2.5 2.3,2.5 1.4,0 2.3,-1.1 2.3,-2.5 z"
       id="path106"
       inkscape:connector-curvature="0"
       style="fill:#ffffff" /><path
       class="st7"
       d="m 673.5,368 h -1.9 v -11.9 h 1.9 v 5 c 0.5,-0.8 1.5,-1.3 2.4,-1.3 2.4,0 4.1,1.9 4.1,4.2 0,2.3 -1.6,4.2 -4.1,4.2 -0.9,0 -2,-0.5 -2.4,-1.3 z m 4.7,-4 c 0,-1.4 -0.9,-2.5 -2.3,-2.5 -1.4,0 -2.3,1.2 -2.3,2.5 0,1.4 0.9,2.5 2.3,2.5 1.4,0 2.3,-1.1 2.3,-2.5 z"
       id="path108"
       inkscape:connector-curvature="0"
       style="fill:#ffffff" /><path
       class="st7"
       d="m 689.7,360 v 7.9 h -1.9 v -1.1 c -0.5,0.8 -1.5,1.3 -2.4,1.3 -2.4,0 -4.1,-1.9 -4.1,-4.2 0,-2.3 1.6,-4.2 4.1,-4.2 0.9,0 2,0.5 2.4,1.3 v -1 z m -1.8,4 c 0,-1.4 -0.9,-2.5 -2.3,-2.5 -1.4,0 -2.3,1.2 -2.3,2.5 0,1.4 0.9,2.5 2.3,2.5 1.3,0 2.3,-1.1 2.3,-2.5 z"
       id="path110"
       inkscape:connector-curvature="0"
       style="fill:#ffffff" /><path
       class="st7"
       d="m 692.2,356.1 h 1.9 V 368 h -1.9 z"
       id="path112"
       inkscape:connector-curvature="0"
       style="fill:#ffffff" /><path
       class="st7"
       d="m 707.8,362 h 5.7 v 1.8 h -1.3 c -0.5,2.7 -2.5,4.5 -5.8,4.5 -3.9,0 -6.1,-3 -6.1,-6.2 0,-3.2 2.4,-6.2 6.1,-6.2 2.8,0 4.9,1.8 5.1,3.9 h -2 c -0.2,-1.2 -1.4,-2.1 -3.1,-2.1 -2.6,0 -4.1,2.2 -4.1,4.5 0,2.3 1.4,4.5 4.4,4.5 2,0 3.2,-1.3 3.5,-2.8 h -2.3 V 362 Z"
       id="path114"
       inkscape:connector-curvature="0"
       style="fill:#ffffff" /><path
       class="st7"
       d="m 714.4,364 c 0,-2.2 1.6,-4.2 4.2,-4.2 2.5,0 4.2,1.9 4.2,4.2 0,2.3 -1.6,4.2 -4.2,4.2 -2.5,0 -4.2,-1.9 -4.2,-4.2 z m 6.5,0 c 0,-1.4 -0.9,-2.5 -2.3,-2.5 -1.4,0 -2.3,1.2 -2.3,2.5 0,1.4 0.9,2.5 2.3,2.5 1.4,0 2.3,-1.1 2.3,-2.5 z"
       id="path116"
       inkscape:connector-curvature="0"
       style="fill:#ffffff" /><path
       class="st7"
       d="m 732.5,360 v 7.9 h -1.9 v -1.1 c -0.5,0.8 -1.5,1.3 -2.4,1.3 -2.4,0 -4.1,-1.9 -4.1,-4.2 0,-2.3 1.6,-4.2 4.1,-4.2 0.9,0 2,0.5 2.4,1.3 v -1 z m -1.9,4 c 0,-1.4 -0.9,-2.5 -2.3,-2.5 -1.4,0 -2.3,1.2 -2.3,2.5 0,1.4 0.9,2.5 2.3,2.5 1.4,0 2.3,-1.1 2.3,-2.5 z"
       id="path118"
       inkscape:connector-curvature="0"
       style="fill:#ffffff" /><path
       class="st7"
       d="m 734.9,356.1 h 1.9 V 368 h -1.9 z"
       id="path120"
       inkscape:connector-curvature="0"
       style="fill:#ffffff" /><path
       class="st7"
       d="m 745,365.8 c 0,1.6 -1.4,2.4 -3.2,2.4 -1.7,0 -3.2,-1 -3.2,-2.9 h 1.8 c 0,1 0.6,1.4 1.5,1.4 0.7,0 1.3,-0.2 1.3,-0.9 0,-0.7 -0.8,-0.8 -2.5,-1.4 -1.1,-0.4 -1.9,-0.8 -1.9,-2.2 0,-1.5 1.4,-2.3 3,-2.3 1.7,0 3,1.1 3,2.7 H 743 c 0,-0.7 -0.4,-1.2 -1.3,-1.2 -0.6,0 -1.1,0.3 -1.1,0.9 0,0.7 0.7,0.8 2.2,1.3 1.2,0.3 2.2,0.7 2.2,2.2 z"
       id="path122"
       inkscape:connector-curvature="0"
       style="fill:#ffffff" /></g></svg>